<svg width="20" height="20" viewBox="0 0 20 20" fill="none" xmlns="http://www.w3.org/2000/svg">
<path d="M17.8711 7.81641C17.5961 7.52969 17.3125 7.23359 17.2195 7.00938C17.1367 6.80938 17.1305 6.39766 17.125 6.03516C17.1133 5.25391 17.0984 4.28203 16.4078 3.59219C15.7172 2.90234 14.7461 2.88906 13.9648 2.875C13.6023 2.86953 13.1906 2.86328 12.9906 2.78047C12.7664 2.6875 12.4703 2.40391 12.1836 2.12891C11.6305 1.59844 10.9414 0.9375 10 0.9375C9.05859 0.9375 8.36953 1.59844 7.81641 2.12891C7.52969 2.40391 7.23359 2.6875 7.00938 2.78047C6.80938 2.86328 6.39766 2.86953 6.03516 2.875C5.25391 2.89062 4.28203 2.90156 3.59375 3.59375C2.90547 4.28594 2.89062 5.25391 2.875 6.03516C2.86953 6.39766 2.86328 6.80938 2.78047 7.00938C2.6875 7.23359 2.40391 7.52969 2.12891 7.81641C1.59844 8.36953 0.9375 9.0625 0.9375 10C0.9375 10.9375 1.59844 11.6305 2.12891 12.1875C2.40391 12.4742 2.6875 12.7703 2.78047 12.9945C2.86328 13.1945 2.86953 13.6062 2.875 13.9688C2.88672 14.75 2.90156 15.7219 3.59219 16.4117C4.28281 17.1016 5.25391 17.1148 6.03516 17.1289C6.39766 17.1344 6.80938 17.1406 7.00938 17.2234C7.23359 17.3164 7.52969 17.6 7.81641 17.875C8.36953 18.4016 9.0625 19.0625 10 19.0625C10.9375 19.0625 11.6305 18.4016 12.1836 17.8711C12.4703 17.5961 12.7664 17.3125 12.9906 17.2195C13.1906 17.1367 13.6023 17.1305 13.9648 17.125C14.7461 17.1133 15.718 17.0984 16.4078 16.4078C17.0977 15.7172 17.1109 14.7461 17.125 13.9648C17.1305 13.6023 17.1367 13.1906 17.2195 12.9906C17.3125 12.7664 17.5961 12.4703 17.8711 12.1836C18.4016 11.6305 19.0625 10.9414 19.0625 10C19.0625 9.05859 18.4016 8.36953 17.8711 7.81641ZM16.518 10.8859C16.1414 11.2766 15.7148 11.7234 15.4875 12.2734C15.2672 12.8047 15.2586 13.3797 15.2531 13.9367C15.2469 14.3555 15.2383 14.9297 15.0852 15.082C14.932 15.2344 14.3586 15.2437 13.9398 15.25C13.3828 15.2586 12.8078 15.2672 12.2766 15.4844C11.7297 15.7117 11.282 16.1383 10.8891 16.5148C10.6078 16.7844 10.1875 17.1875 10 17.1875C9.8125 17.1875 9.39219 16.7844 9.11406 16.518C8.72344 16.1414 8.27656 15.7148 7.72656 15.4875C7.19531 15.2672 6.62031 15.2586 6.06328 15.2531C5.64453 15.2469 5.07031 15.2383 4.91797 15.0852C4.76562 14.932 4.75625 14.3586 4.75 13.9398C4.74141 13.3828 4.73281 12.8078 4.51562 12.2766C4.28828 11.7297 3.86172 11.282 3.48516 10.8891C3.21563 10.6078 2.8125 10.1875 2.8125 10C2.8125 9.8125 3.21563 9.39219 3.48203 9.11406C3.85859 8.72344 4.28516 8.27656 4.5125 7.72656C4.73281 7.19531 4.74141 6.62031 4.74687 6.06328C4.75625 5.64453 4.76562 5.07031 4.92188 4.92188C5.07812 4.77344 5.64844 4.76016 6.06719 4.75391C6.62422 4.74531 7.19922 4.73672 7.73047 4.51953C8.27734 4.29219 8.725 3.86562 9.11797 3.48906C9.39219 3.21563 9.8125 2.8125 10 2.8125C10.1875 2.8125 10.6078 3.21563 10.8859 3.48203C11.2766 3.85859 11.7234 4.28516 12.2734 4.5125C12.8047 4.73281 13.3797 4.74141 13.9367 4.74687C14.3555 4.75312 14.9297 4.76172 15.082 4.91484C15.2344 5.06797 15.2437 5.64141 15.25 6.06016C15.2586 6.61719 15.2672 7.19219 15.4844 7.72344C15.7117 8.27031 16.1383 8.71797 16.5148 9.11094C16.7812 9.38906 17.1844 9.80937 17.1844 9.99687C17.1844 10.1844 16.7844 10.6078 16.518 10.8859ZM13.7883 7.46172C13.8757 7.54882 13.945 7.65231 13.9923 7.76626C14.0397 7.88022 14.064 8.00239 14.064 8.12578C14.064 8.24917 14.0397 8.37134 13.9923 8.4853C13.945 8.59925 13.8757 8.70275 13.7883 8.78984L9.41328 13.1648C9.32618 13.2522 9.22269 13.3216 9.10874 13.3689C8.99478 13.4162 8.87261 13.4406 8.74922 13.4406C8.62583 13.4406 8.50366 13.4162 8.3897 13.3689C8.27575 13.3216 8.17225 13.2522 8.08516 13.1648L6.21016 11.2898C6.12295 11.2026 6.05377 11.0991 6.00658 10.9852C5.95938 10.8712 5.93509 10.7491 5.93509 10.6258C5.93509 10.5025 5.95938 10.3803 6.00658 10.2664C6.05377 10.1525 6.12295 10.0489 6.21016 9.96172C6.29736 9.87451 6.40089 9.80534 6.51483 9.75814C6.62877 9.71095 6.75089 9.68666 6.87422 9.68666C6.99755 9.68666 7.11967 9.71095 7.23361 9.75814C7.34755 9.80534 7.45108 9.87451 7.53828 9.96172L8.75 11.1719L12.4617 7.45938C12.5489 7.37236 12.6525 7.3034 12.7664 7.25642C12.8802 7.20944 13.0023 7.18537 13.1255 7.18559C13.2487 7.18581 13.3706 7.21031 13.4844 7.25769C13.5981 7.30507 13.7014 7.3744 13.7883 7.46172Z" fill="black"/>
</svg>
