<svg width="16" height="16" viewBox="0 0 16 16" fill="none" xmlns="http://www.w3.org/2000/svg">
<rect width="16" height="16" fill="white"/>
<path d="M7.5 0C8.19271 0 8.85677 0.0885417 9.49219 0.265625C10.1276 0.442708 10.7266 0.692708 11.2891 1.01562C11.8516 1.33854 12.3568 1.72917 12.8047 2.1875C13.2526 2.64583 13.6432 3.15365 13.9766 3.71094C14.3099 4.26823 14.5625 4.86458 14.7344 5.5C14.9062 6.13542 14.9948 6.80208 15 7.5C15 8.19271 14.9115 8.85677 14.7344 9.49219C14.5573 10.1276 14.3073 10.7266 13.9844 11.2891C13.6615 11.8516 13.2708 12.3568 12.8125 12.8047C12.3542 13.2526 11.8464 13.6432 11.2891 13.9766C10.7318 14.3099 10.1354 14.5625 9.5 14.7344C8.86458 14.9062 8.19792 14.9948 7.5 15C6.80729 15 6.14323 14.9115 5.50781 14.7344C4.8724 14.5573 4.27344 14.3073 3.71094 13.9844C3.14844 13.6615 2.64323 13.2708 2.19531 12.8125C1.7474 12.3542 1.35677 11.8464 1.02344 11.2891C0.690104 10.7318 0.4375 10.1354 0.265625 9.5C0.09375 8.86458 0.00520833 8.19792 0 7.5C0 6.80729 0.0885417 6.14323 0.265625 5.50781C0.442708 4.8724 0.692708 4.27344 1.01562 3.71094C1.33854 3.14844 1.72917 2.64323 2.1875 2.19531C2.64583 1.7474 3.15365 1.35677 3.71094 1.02344C4.26823 0.690104 4.86458 0.4375 5.5 0.265625C6.13542 0.09375 6.80208 0.00520833 7.5 0ZM7.5 14C8.09896 14 8.67448 13.9219 9.22656 13.7656C9.77865 13.6094 10.2943 13.3906 10.7734 13.1094C11.2526 12.8281 11.6927 12.4896 12.0938 12.0938C12.4948 11.6979 12.8333 11.2604 13.1094 10.7812C13.3854 10.3021 13.6042 9.78385 13.7656 9.22656C13.9271 8.66927 14.0052 8.09375 14 7.5C14 6.90104 13.9219 6.32552 13.7656 5.77344C13.6094 5.22135 13.3906 4.70573 13.1094 4.22656C12.8281 3.7474 12.4896 3.30729 12.0938 2.90625C11.6979 2.50521 11.2604 2.16667 10.7812 1.89062C10.3021 1.61458 9.78385 1.39583 9.22656 1.23438C8.66927 1.07292 8.09375 0.994792 7.5 1C6.90104 1 6.32552 1.07812 5.77344 1.23438C5.22135 1.39062 4.70573 1.60938 4.22656 1.89062C3.7474 2.17188 3.30729 2.51042 2.90625 2.90625C2.50521 3.30208 2.16667 3.73958 1.89062 4.21875C1.61458 4.69792 1.39583 5.21615 1.23438 5.77344C1.07292 6.33073 0.994792 6.90625 1 7.5C1 8.09896 1.07812 8.67448 1.23438 9.22656C1.39062 9.77865 1.60938 10.2943 1.89062 10.7734C2.17188 11.2526 2.51042 11.6927 2.90625 12.0938C3.30208 12.4948 3.73958 12.8333 4.21875 13.1094C4.69792 13.3854 5.21615 13.6042 5.77344 13.7656C6.33073 13.9271 6.90625 14.0052 7.5 14ZM5.67969 7H11V8H5.67969L7.85156 10.1406L7.14844 10.8594L3.75781 7.5L7.14844 4.14062L7.85156 4.85938L5.67969 7Z" fill="#0E9A97"/>
<path opacity="0.3" d="M7 1C3.14125 1 0 3.91688 0 7.5C0 11.0831 3.14125 14 7 14C10.8587 14 14 11.0831 14 7.5C14 3.91688 10.8587 1 7 1Z" fill="#0E9A97"/>
</svg>
