<svg width="21" height="21" viewBox="0 0 21 21" fill="none" xmlns="http://www.w3.org/2000/svg">
<path d="M3.18214 16.7317C-0.232127 12.6628 0.298625 6.59635 4.36758 3.18209C8.43653 -0.232164 14.5029 0.298566 17.9172 4.36753C21.3315 8.43649 20.8007 14.5029 16.7318 17.9172C12.6628 21.3314 6.5964 20.8007 3.18214 16.7317ZM16.3156 5.71147C13.6432 2.52662 8.89556 2.112 5.71151 4.78373C2.52745 7.45548 2.11139 12.2029 4.78379 15.3878C7.4562 18.5726 12.2038 18.9872 15.3878 16.3155C18.5719 13.6438 18.988 8.89631 16.3156 5.71147ZM8.67607 14.5782L6.25697 11.6952L9.53232 8.94687L8.0204 7.14504L13.793 7.82816L13.4633 13.6317L11.9514 11.8298L8.67607 14.5782Z" fill="#2551B2"/>
</svg>
