<svg width="28" height="28" viewBox="0 0 28 28" fill="none" xmlns="http://www.w3.org/2000/svg">
<path d="M10.3889 8.64706H10.4033M17.6111 8.64706H17.6256M22.6667 1C23.8159 1 24.9181 1.4834 25.7308 2.34386C26.5435 3.20432 27 4.37136 27 5.58824V17.8235C27 19.0404 26.5435 20.2074 25.7308 21.0679C24.9181 21.9284 23.8159 22.4118 22.6667 22.4118H15.4444L8.22222 27V22.4118H5.33333C4.18406 22.4118 3.08186 21.9284 2.2692 21.0679C1.45655 20.2074 1 19.0404 1 17.8235V5.58824C1 4.37136 1.45655 3.20432 2.2692 2.34386C3.08186 1.4834 4.18406 1 5.33333 1H22.6667Z" stroke="#5F6060" stroke-width="2" stroke-linecap="round" stroke-linejoin="round"/>
<path d="M10.3888 14.7646C10.8595 15.2733 11.4214 15.6774 12.0414 15.9533C12.6615 16.2292 13.3273 16.3713 13.9999 16.3713C14.6725 16.3713 15.3383 16.2292 15.9584 15.9533C16.5785 15.6774 17.1403 15.2733 17.611 14.7646" stroke="#5F6060" stroke-width="2" stroke-linecap="round" stroke-linejoin="round"/>
</svg>
