<svg width="10" height="10" viewBox="0 0 10 10" fill="none" xmlns="http://www.w3.org/2000/svg">
<path d="M5 0C2.24 0 0 2.24 0 5C0 7.76 2.24 10 5 10C7.76 10 10 7.76 10 5C10 2.24 7.76 0 5 0ZM5 9C2.795 9 1 7.205 1 5C1 2.795 2.795 1 5 1C7.205 1 9 2.795 9 5C9 7.205 7.205 9 5 9Z" fill="#128A3A"/>
<path opacity="0.3" d="M5 1C2.795 1 1 2.795 1 5C1 7.205 2.795 9 5 9C7.205 9 9 7.205 9 5C9 2.795 7.205 1 5 1Z" fill="#128A3A"/>
<path d="M7.35515 3L8 3.40343L5.20404 7H4.55919L3 5.0515L3.64485 4.51502L4.88162 5.54506L7.35515 3Z" fill="#128A3A"/>
</svg>
