<svg width="12" height="12" viewBox="0 0 12 12" fill="none" xmlns="http://www.w3.org/2000/svg">
<mask id="mask0_149_147" style="mask-type:luminance" maskUnits="userSpaceOnUse" x="0" y="0" width="12" height="12">
<path d="M6 11C6.65673 11.0008 7.30715 10.8719 7.91388 10.6205C8.52062 10.3692 9.07171 10.0005 9.5355 9.5355C10.0005 9.07171 10.3692 8.52062 10.6205 7.91388C10.8719 7.30715 11.0008 6.65673 11 6C11.0008 5.34328 10.8719 4.69286 10.6205 4.08613C10.3692 3.47939 10.0005 2.9283 9.5355 2.4645C9.07171 1.99954 8.52062 1.63081 7.91388 1.37948C7.30715 1.12816 6.65673 0.999194 6 1C5.34328 0.999194 4.69286 1.12816 4.08613 1.37948C3.47939 1.63081 2.9283 1.99954 2.4645 2.4645C1.99954 2.9283 1.63081 3.47939 1.37948 4.08613C1.12816 4.69286 0.999194 5.34328 1 6C0.999194 6.65673 1.12816 7.30715 1.37948 7.91388C1.63081 8.52062 1.99954 9.07171 2.4645 9.5355C2.9283 10.0005 3.47939 10.3692 4.08613 10.6205C4.69286 10.8719 5.34328 11.0008 6 11Z" fill="#555555" stroke="white" stroke-width="2" stroke-linejoin="round"/>
<path fill-rule="evenodd" clip-rule="evenodd" d="M6 9.25C6.16576 9.25 6.32473 9.18415 6.44194 9.06694C6.55915 8.94973 6.625 8.79076 6.625 8.625C6.625 8.45924 6.55915 8.30027 6.44194 8.18306C6.32473 8.06585 6.16576 8 6 8C5.83424 8 5.67527 8.06585 5.55806 8.18306C5.44085 8.30027 5.375 8.45924 5.375 8.625C5.375 8.79076 5.44085 8.94973 5.55806 9.06694C5.67527 9.18415 5.83424 9.25 6 9.25Z" fill="white"/>
<path d="M6 3V7" stroke="white" stroke-width="2" stroke-linecap="round" stroke-linejoin="round"/>
</mask>
<g mask="url(#mask0_149_147)">
<path d="M0 0H12V12H0V0Z" fill="#CE8729"/>
</g>
</svg>
