<svg width="22" height="22" viewBox="0 0 22 22" fill="none" xmlns="http://www.w3.org/2000/svg">
<path d="M17 5C16.953 3.447 16.78 2.52 16.138 1.879C15.258 1 13.842 1 11.01 1H7.007C4.175 1 2.759 1 1.88 1.879C1 2.757 1 4.172 1 7V15C1 17.828 1 19.243 1.88 20.121C2.76 20.999 4.175 21 7.007 21H11.011C13.842 21 15.258 21 16.138 20.121C16.78 19.48 16.953 18.554 17 17" stroke="black" stroke-width="1.5" stroke-linecap="round" stroke-linejoin="round"/>
<path d="M19.242 10.742L20.419 9.565C20.689 9.295 20.825 9.159 20.897 9.013C20.9641 8.87603 20.999 8.72553 20.999 8.573C20.999 8.42047 20.9641 8.26997 20.897 8.133C20.825 7.987 20.689 7.851 20.419 7.581C20.149 7.311 20.013 7.175 19.867 7.103C19.73 7.03589 19.5795 7.001 19.427 7.001C19.2745 7.001 19.124 7.03589 18.987 7.103C18.841 7.175 18.706 7.311 18.435 7.581L17.258 8.758M19.242 10.742L13.976 16.008L11 17L11.992 14.024L17.258 8.758M19.242 10.742L17.258 8.758M4 18H5L6.25 15.5L7.5 18H8.5M5 5H13M5 9H11" stroke="black" stroke-width="1.5" stroke-linecap="round" stroke-linejoin="round"/>
</svg>
