<svg width="9" height="9" viewBox="0 0 9 9" fill="none" xmlns="http://www.w3.org/2000/svg">
<path d="M2.54623 5.78711C2.50717 5.74804 2.48523 5.69506 2.48523 5.63982C2.48523 5.58457 2.50717 5.53159 2.54623 5.49252L3.87206 4.16669L2.54623 2.84086C2.50828 2.80157 2.48728 2.74894 2.48775 2.69432C2.48823 2.63969 2.51014 2.58744 2.54876 2.54881C2.58739 2.51019 2.63964 2.48828 2.69427 2.4878C2.74889 2.48733 2.80152 2.50832 2.84081 2.54627L4.16664 3.87211L5.49248 2.54627C5.53177 2.50832 5.58439 2.48733 5.63902 2.4878C5.69364 2.48828 5.7459 2.51019 5.78452 2.54881C5.82315 2.58744 5.84506 2.63969 5.84553 2.69432C5.84601 2.74894 5.82501 2.80157 5.78706 2.84086L4.46123 4.16669L5.78706 5.49252C5.82501 5.53182 5.84601 5.58444 5.84553 5.63907C5.84506 5.69369 5.82315 5.74594 5.78452 5.78457C5.7459 5.8232 5.69364 5.84511 5.63902 5.84558C5.58439 5.84606 5.53177 5.82506 5.49248 5.78711L4.16664 4.46127L2.84081 5.78711C2.80174 5.82616 2.74876 5.8481 2.69352 5.8481C2.63828 5.8481 2.58529 5.82616 2.54623 5.78711Z" fill="#BF1F2B"/>
<path fill-rule="evenodd" clip-rule="evenodd" d="M4.16667 8.33333C6.46792 8.33333 8.33333 6.46792 8.33333 4.16667C8.33333 1.86542 6.46792 0 4.16667 0C1.86542 0 0 1.86542 0 4.16667C0 6.46792 1.86542 8.33333 4.16667 8.33333ZM4.16667 7.91667C6.23771 7.91667 7.91667 6.23771 7.91667 4.16667C7.91667 2.09562 6.23771 0.416667 4.16667 0.416667C2.09562 0.416667 0.416667 2.09562 0.416667 4.16667C0.416667 6.23771 2.09562 7.91667 4.16667 7.91667Z" fill="#BF1F2B"/>
</svg>
