<svg width="20" height="20" viewBox="0 0 20 20" fill="none" xmlns="http://www.w3.org/2000/svg">
<path d="M17.5 0.625H2.5C2.00272 0.625 1.52581 0.822544 1.17417 1.17417C0.822544 1.52581 0.625 2.00272 0.625 2.5V17.5C0.625 17.9973 0.822544 18.4742 1.17417 18.8258C1.52581 19.1775 2.00272 19.375 2.5 19.375H17.5C17.9973 19.375 18.4742 19.1775 18.8258 18.8258C19.1775 18.4742 19.375 17.9973 19.375 17.5V2.5C19.375 2.00272 19.1775 1.52581 18.8258 1.17417C18.4742 0.822544 17.9973 0.625 17.5 0.625ZM15.625 8.125H17.125V11.875H15.625V8.125ZM17.125 5.875H15.625V2.875H17.125V5.875ZM2.875 2.875H13.375V17.125H2.875V2.875ZM15.625 17.125V14.125H17.125V17.125H15.625ZM12.2144 13.4688C11.9885 12.6142 11.4894 11.857 10.7931 11.3125C11.1797 10.8135 11.4186 10.216 11.4826 9.58803C11.5466 8.96004 11.4333 8.32668 11.1554 7.7599C10.8775 7.19311 10.4462 6.71562 9.91051 6.38167C9.37484 6.04771 8.75625 5.87068 8.125 5.87068C7.49375 5.87068 6.87516 6.04771 6.33949 6.38167C5.80382 6.71562 5.37254 7.19311 5.09464 7.7599C4.81675 8.32668 4.70338 8.96004 4.76741 9.58803C4.83144 10.216 5.07031 10.8135 5.45687 11.3125C4.76129 11.8576 4.26234 12.6146 4.03562 13.4688C3.99869 13.6118 3.9903 13.7607 4.01092 13.907C4.03154 14.0533 4.08078 14.1942 4.15582 14.3214C4.23086 14.4487 4.33024 14.56 4.44827 14.6488C4.56631 14.7377 4.70069 14.8024 4.84375 14.8394C4.98681 14.8763 5.13574 14.8847 5.28204 14.8641C5.42835 14.8435 5.56916 14.7942 5.69643 14.7192C5.82371 14.6441 5.93495 14.5448 6.02382 14.4267C6.11269 14.3087 6.17744 14.1743 6.21438 14.0312C6.42063 13.2306 7.24563 12.625 8.125 12.625C9.00438 12.625 9.83031 13.2288 10.0356 14.0312C10.1102 14.3202 10.2965 14.5676 10.5536 14.7192C10.8106 14.8707 11.1173 14.914 11.4062 14.8394C11.6952 14.7648 11.9426 14.5785 12.0942 14.3214C12.2457 14.0644 12.289 13.7577 12.2144 13.4688ZM7 9.25C7 9.0275 7.06598 8.80999 7.1896 8.62498C7.31321 8.43998 7.48891 8.29578 7.69448 8.21064C7.90005 8.12549 8.12625 8.10321 8.34448 8.14662C8.56271 8.19002 8.76316 8.29717 8.9205 8.4545C9.07783 8.61184 9.18498 8.81229 9.22838 9.03052C9.27179 9.24875 9.24951 9.47495 9.16436 9.68052C9.07922 9.88609 8.93502 10.0618 8.75002 10.1854C8.56501 10.309 8.3475 10.375 8.125 10.375C7.82663 10.375 7.54048 10.2565 7.3295 10.0455C7.11853 9.83452 7 9.54837 7 9.25Z" fill="black"/>
</svg>
