<svg width="55" height="55" viewBox="0 0 55 55" fill="none" xmlns="http://www.w3.org/2000/svg">
<g clip-path="url(#clip0_79_49)">
<path d="M51.9824 34.0211H44.638V21.1236C44.6392 20.5564 44.4414 20.0067 44.0791 19.5703L44.0814 19.5748L44.0746 19.5613C44.0299 19.5075 43.9827 19.4558 43.9332 19.4065L43.913 19.3863L43.8502 19.3212L25.9697 1.44065C25.9181 1.39096 25.8641 1.34377 25.808 1.29924L25.7497 1.25434L25.6307 1.16456L25.5724 1.12191L25.4422 1.04335L25.3883 1.01193C25.3299 0.980502 25.2693 0.951322 25.2065 0.924387L25.1302 0.890718L25.0067 0.845825L24.9192 0.81889L24.7778 0.782977L24.7127 0.767264C24.6438 0.755293 24.5743 0.744818 24.5039 0.73584H3.01185C1.66509 0.73584 0.571967 1.82223 0.562988 3.16675V52.1395C0.562988 53.493 1.6606 54.5884 3.01185 54.5884H42.1892C43.5427 54.5884 44.638 53.4908 44.638 52.1395V38.9166H52.0542C52.7037 38.9166 53.3266 38.6586 53.7858 38.1993C54.2451 37.74 54.5031 37.1172 54.5031 36.4677C54.5031 35.8182 54.2451 35.1953 53.7858 34.7361C53.3266 34.2768 52.7037 34.0188 52.0542 34.0188L51.9824 34.0211ZM26.679 9.07679L36.2746 18.6747H26.679V9.07679ZM39.7381 49.6884H5.45847V5.61336H21.7835V21.1213C21.7835 22.4748 22.8811 23.5702 24.2323 23.5702H39.7403V34.0188H30.1424L32.084 32.0772C32.5108 31.612 32.7414 30.9999 32.7277 30.3686C32.7141 29.7374 32.4571 29.1359 32.0105 28.6896C31.5639 28.2433 30.9622 27.9867 30.331 27.9734C29.6997 27.9601 29.0877 28.1912 28.6228 28.6183L28.625 28.6161L22.4793 34.7663L22.3446 34.9144L22.2997 34.9728L22.1987 35.1075L22.1673 35.1568L22.073 35.3117L22.0551 35.3476C22.0239 35.4069 21.9955 35.4676 21.9698 35.5294V35.5541L21.8979 35.7472V35.7741C21.8776 35.8413 21.8603 35.9095 21.8463 35.9784V36.039C21.8358 36.0973 21.8269 36.1564 21.8194 36.2163C21.8009 36.3819 21.8009 36.549 21.8194 36.7146V36.7034C21.8194 36.764 21.8351 36.8201 21.8463 36.8807V36.9413C21.8613 37.0116 21.8785 37.0812 21.8979 37.1501V37.1747C21.9194 37.2432 21.9441 37.3106 21.972 37.3768V37.3992C21.999 37.4606 22.0281 37.5212 22.0596 37.581L22.0775 37.6147L22.1718 37.7718L22.201 37.8189L22.3042 37.9604L22.3446 38.0142C22.391 38.0711 22.4404 38.1265 22.4928 38.1803L22.504 38.1938L28.625 44.3148C28.8484 44.5583 29.1187 44.754 29.4197 44.8903C29.7207 45.0265 30.0461 45.1004 30.3764 45.1076C30.7068 45.1148 31.0351 45.055 31.3417 44.9319C31.6483 44.8089 31.9269 44.625 32.1606 44.3915C32.3943 44.1579 32.5783 43.8795 32.7016 43.573C32.8248 43.2664 32.8848 42.9381 32.8778 42.6078C32.8709 42.2775 32.7972 41.952 32.6611 41.6509C32.5251 41.3498 32.3295 41.0794 32.0862 40.8559L32.084 40.8536L30.1424 38.9121H39.7381V49.6884Z" fill="#5F6060"/>
</g>
<defs>
<clipPath id="clip0_79_49">
<rect width="53.8705" height="53.8705" fill="white" transform="translate(0.560791 0.718018)"/>
</clipPath>
</defs>
</svg>
