<svg width="28" height="26" viewBox="0 0 28 26" fill="none" xmlns="http://www.w3.org/2000/svg">
<path d="M14 26C6.2678 26 0 20.1799 0 13C0 5.8201 6.2678 0 14 0C21.7322 0 28 5.8201 28 13C28 20.1799 21.7322 26 14 26ZM14 23.4C16.9704 23.4 19.8192 22.3043 21.9196 20.3539C24.02 18.4035 25.2 15.7583 25.2 13C25.2 10.2417 24.02 7.59647 21.9196 5.64609C19.8192 3.69571 16.9704 2.6 14 2.6C11.0296 2.6 8.18081 3.69571 6.0804 5.64609C3.98 7.59647 2.8 10.2417 2.8 13C2.8 15.7583 3.98 18.4035 6.0804 20.3539C8.18081 22.3043 11.0296 23.4 14 23.4ZM12.6 16.9H15.4V19.5H12.6V16.9ZM15.4 14.7615V15.6H12.6V13.65C12.6 13.3052 12.7475 12.9746 13.0101 12.7308C13.2726 12.487 13.6287 12.35 14 12.35C14.3977 12.35 14.7872 12.2451 15.1233 12.0475C15.4593 11.85 15.728 11.5679 15.8981 11.2341C16.0682 10.9002 16.1327 10.5284 16.0842 10.1619C16.0356 9.79536 15.8759 9.44916 15.6238 9.16358C15.3716 8.87801 15.0373 8.6648 14.6597 8.54876C14.2821 8.43272 13.8769 8.41863 13.491 8.50812C13.1051 8.59761 12.7546 8.787 12.4801 9.05426C12.2056 9.32152 12.0186 9.65566 11.9406 10.0178L9.1938 9.5069C9.36408 8.71661 9.75731 7.98248 10.3333 7.37956C10.9093 6.77664 11.6473 6.32656 12.472 6.07532C13.2967 5.82408 14.1785 5.78069 15.0272 5.9496C15.8758 6.11851 16.661 6.49365 17.3023 7.03667C17.9437 7.5797 18.4183 8.27113 18.6776 9.04028C18.9368 9.80944 18.9715 10.6287 18.778 11.4144C18.5845 12.2001 18.1698 12.9239 17.5763 13.512C16.9828 14.1001 16.2318 14.5313 15.4 14.7615Z" fill="#5F6060"/>
</svg>
