<svg width="54" height="54" viewBox="0 0 54 54" fill="none" xmlns="http://www.w3.org/2000/svg">
<path d="M18.5562 47.1862H14.1517C12.3995 47.1862 10.719 46.4901 9.48 45.2511C8.24099 44.0121 7.54492 42.3317 7.54492 40.5795V38.3772H19.6573M38.3765 19.658V11.9502C38.3765 11.079 38.6348 10.2275 39.1188 9.50315C39.6027 8.77883 40.2906 8.2143 41.0954 7.88093C41.9003 7.54756 42.7859 7.46034 43.6402 7.63029C44.4946 7.80024 45.2794 8.21972 45.8954 8.83571C46.5114 9.45169 46.9309 10.2365 47.1008 11.0909C47.2708 11.9453 47.1836 12.8309 46.8502 13.6357C46.5168 14.4405 45.9523 15.1284 45.228 15.6124C44.5037 16.0963 43.6521 16.3547 42.781 16.3547H38.3765" stroke="#5F6060" stroke-width="2" stroke-linecap="round" stroke-linejoin="round"/>
<path d="M42.781 7.54565H18.5562C16.804 7.54565 15.1235 8.24172 13.8845 9.48073C12.6455 10.7197 11.9495 12.4002 11.9495 14.1524V38.3772M20.7585 16.3547H29.5675M20.7585 25.1637H29.5675M41.5037 28.7093C42.371 27.842 43.5474 27.3547 44.774 27.3547C46.0007 27.3547 47.177 27.842 48.0444 28.7093C48.9117 29.5767 49.399 30.753 49.399 31.9797C49.399 33.2063 48.9117 34.3826 48.0444 35.25L33.972 49.3885H27.3652V42.7817L41.5037 28.7093Z" stroke="#5F6060" stroke-width="2" stroke-linecap="round" stroke-linejoin="round"/>
</svg>
