<svg width="20" height="22" viewBox="0 0 20 22" fill="none" xmlns="http://www.w3.org/2000/svg">
<path fill-rule="evenodd" clip-rule="evenodd" d="M16.5978 7.14944C16.5698 6.81944 16.5428 6.48344 16.5428 6.41644C16.5048 4.67808 15.7781 3.02593 14.5225 1.82305C13.267 0.620175 11.5852 -0.0350199 9.84681 0.00144445C8.10892 -0.034485 6.42782 0.620812 5.17272 1.82342C3.91761 3.02602 3.19113 4.67761 3.15281 6.41544C3.15281 6.47944 3.12981 6.77544 3.10481 7.08244C3.56481 7.38844 4.43881 7.86844 5.53981 8.30244C6.86381 8.82644 8.43181 9.25044 9.90181 9.25044C11.3718 9.25044 12.9398 8.82644 14.2638 8.30344C15.2888 7.89844 16.1168 7.45444 16.5978 7.14944ZM17.1208 8.58745C16.5328 8.93445 15.7278 9.33744 14.8148 9.69844C13.3968 10.2584 11.6318 10.7514 9.90181 10.7514C9.65181 10.7514 9.40181 10.7414 9.15181 10.7214V12.5014C9.15181 12.7004 9.07279 12.8911 8.93214 13.0318C8.79149 13.1724 8.60073 13.2514 8.40181 13.2514H5.90181C5.7029 13.2514 5.51213 13.1724 5.37148 13.0318C5.23083 12.8911 5.15181 12.7004 5.15181 12.5014V9.76244L4.98881 9.69944C4.16519 9.37575 3.3681 8.98824 2.60481 8.54044C1.56481 10.2144 -0.712188 14.1824 0.218812 15.3694C0.536812 15.7744 1.25281 15.5604 1.97881 15.1784C2.01205 15.1613 2.04884 15.1521 2.08625 15.1517C2.12366 15.1513 2.16065 15.1596 2.19426 15.176C2.22787 15.1925 2.25718 15.2165 2.27985 15.2463C2.30252 15.276 2.31792 15.3107 2.32481 15.3474C2.55579 16.6035 3.11897 17.7747 3.95581 18.7394L3.97781 18.7694C4.50181 19.2694 5.38781 19.8554 6.36381 20.3564C7.33881 20.8574 8.34781 21.2444 9.10581 21.3784H9.14181C9.61421 21.4205 10.0894 21.4205 10.5618 21.3784H10.5948C11.3528 21.2444 12.3608 20.8574 13.3348 20.3564C14.3248 19.8484 15.2218 19.2524 15.7438 18.7484L15.7448 18.7464L15.7478 18.7434C16.5861 17.7769 17.1497 16.6031 17.3798 15.3444C17.3865 15.3075 17.4018 15.2725 17.4245 15.2426C17.4472 15.2126 17.4766 15.1883 17.5104 15.1718C17.5441 15.1552 17.5813 15.1469 17.6189 15.1473C17.6565 15.1478 17.6935 15.1571 17.7268 15.1744C18.4528 15.5574 19.1698 15.7724 19.4888 15.3664C20.3898 14.2064 18.1678 10.2894 17.1208 8.58745ZM16.5188 19.3654C16.4966 19.4024 16.4697 19.4364 16.4388 19.4664C15.8188 20.0664 14.8248 20.7164 13.7918 21.2464C13.3158 21.4904 12.8178 21.7164 12.3318 21.9044C12.7744 21.9787 13.2232 22.0101 13.6718 21.9984C15.7818 21.9984 17.4978 21.2924 17.4978 20.4204C17.4978 20.0144 17.1278 19.6454 16.5188 19.3654ZM2.20581 20.4214C2.20581 20.0164 2.57581 19.6484 3.18081 19.3684C3.20308 19.4051 3.22997 19.4387 3.26081 19.4684C3.88081 20.0684 4.87481 20.7164 5.90681 21.2474C6.38381 21.4924 6.88181 21.7174 7.36881 21.9054C6.92685 21.9795 6.47879 22.011 6.03081 21.9994C3.91681 21.9994 2.20581 21.2934 2.20581 20.4214ZM9.90181 8.00144C10.8118 8.00144 11.8738 7.71444 12.6978 7.35744C13.0348 7.21144 13.0398 6.78244 12.7058 6.63044C12.0768 6.34644 11.0758 6.00144 9.90181 6.00144C8.72781 6.00144 7.72581 6.34644 7.09881 6.63144C6.76381 6.78244 6.76881 7.21144 7.10581 7.35744C7.92981 7.71444 8.99281 8.00144 9.90181 8.00144ZM8.65181 3.00144C8.65181 2.80253 8.57279 2.61177 8.43214 2.47111C8.29149 2.33046 8.10073 2.25144 7.90181 2.25144C7.7029 2.25144 7.51214 2.33046 7.37148 2.47111C7.23083 2.61177 7.15181 2.80253 7.15181 3.00144V4.00144C7.15181 4.20036 7.23083 4.39112 7.37148 4.53177C7.51214 4.67243 7.7029 4.75144 7.90181 4.75144C8.10073 4.75144 8.29149 4.67243 8.43214 4.53177C8.57279 4.39112 8.65181 4.20036 8.65181 4.00144V3.00144ZM10.6518 4.00144C10.6518 3.80253 10.7308 3.61177 10.8715 3.47111C11.0121 3.33046 11.2029 3.25144 11.4018 3.25144H12.4018C12.6007 3.25144 12.7915 3.33046 12.9321 3.47111C13.0728 3.61177 13.1518 3.80253 13.1518 4.00144C13.1518 4.20036 13.0728 4.39112 12.9321 4.53177C12.7915 4.67243 12.6007 4.75144 12.4018 4.75144H11.4018C11.2029 4.75144 11.0121 4.67243 10.8715 4.53177C10.7308 4.39112 10.6518 4.20036 10.6518 4.00144Z" fill="black"/>
</svg>
