<svg width="18" height="18" viewBox="0 0 18 18" fill="none" xmlns="http://www.w3.org/2000/svg">
<path d="M0 3.125C0 2.2962 0.32924 1.50134 0.915291 0.915291C1.50134 0.32924 2.2962 0 3.125 0H14.875C15.7038 0 16.4987 0.32924 17.0847 0.915291C17.6708 1.50134 18 2.2962 18 3.125V14.875C18 15.7038 17.6708 16.4987 17.0847 17.0847C16.4987 17.6708 15.7038 18 14.875 18H3.125C2.2962 18 1.50134 17.6708 0.915291 17.0847C0.32924 16.4987 0 15.7038 0 14.875V3.125ZM9 4C8.655 4 8.375 4.28 8.375 4.625V8.375H4.625C4.45924 8.375 4.30027 8.44085 4.18306 8.55806C4.06585 8.67527 4 8.83424 4 9C4 9.16576 4.06585 9.32473 4.18306 9.44194C4.30027 9.55915 4.45924 9.625 4.625 9.625H8.375V13.375C8.375 13.5408 8.44085 13.6997 8.55806 13.8169C8.67527 13.9342 8.83424 14 9 14C9.16576 14 9.32473 13.9342 9.44194 13.8169C9.55915 13.6997 9.625 13.5408 9.625 13.375V9.625H13.375C13.5408 9.625 13.6997 9.55915 13.8169 9.44194C13.9342 9.32473 14 9.16576 14 9C14 8.83424 13.9342 8.67527 13.8169 8.55806C13.6997 8.44085 13.5408 8.375 13.375 8.375H9.625V4.625C9.625 4.28 9.345 4 9 4Z" fill="black"/>
</svg>
