<svg width="35" height="12" viewBox="0 0 35 12" fill="none" xmlns="http://www.w3.org/2000/svg">
<path d="M22.6064 12L27.9193 0H24.3975L20.7635 7.75438L18.1788 0H15.4711L12.6971 7.75438L10.7399 4.22125L8.96943 9.1875L10.7673 12H14.2331L16.7405 5.04562L19.1331 12H22.6064ZM3.33525 7.88062H5.49883C6.08996 7.88821 6.67938 7.82069 7.2502 7.68L7.80937 6.10563L9.37344 1.70625C9.2527 1.53263 9.11545 1.36908 8.96328 1.2175C8.16211 0.405833 6.98792 0 5.44072 0H0V12H3.33525V7.88062ZM6.19951 2.76062C6.51351 3.04896 6.67028 3.43479 6.66982 3.91813C6.66937 4.40146 6.53265 4.7875 6.25967 5.07625C5.95706 5.39375 5.40016 5.55229 4.58896 5.55188H3.33525V2.32812H4.59443C5.35049 2.32812 5.88551 2.47229 6.19951 2.76062ZM25.7612 9.85062L26.7723 7.5225H29.6905L28.3056 3.99063L30.0378 0L35 12H31.3407L30.4931 9.85062H25.7612Z" fill="black"/>
</svg>
