<svg width="24" height="24" viewBox="0 0 24 24" fill="none" xmlns="http://www.w3.org/2000/svg">
<path fill-rule="evenodd" clip-rule="evenodd" d="M1 10V8H8V10H5.5V16H3.5V10H1ZM15.5 8V16H19.5C20.4283 16 21.3185 15.6313 21.9749 14.9749C22.6313 14.3185 23 13.4283 23 12.5V11.5C23 10.5717 22.6313 9.6815 21.9749 9.02513C21.3185 8.36875 20.4283 8 19.5 8H15.5ZM17.5 10V14H19C19.3978 14 19.7794 13.842 20.0607 13.5607C20.342 13.2794 20.5 12.8978 20.5 12.5V11.5C20.5 11.1022 20.342 10.7206 20.0607 10.4393C19.7794 10.158 19.3978 10 19 10H17.5ZM8.5 8V16H15V14H10.5V13H15V11H10.5V10H15V8H8.5Z" fill="black"/>
</svg>
