<svg width="30" height="30" viewBox="0 0 30 30" fill="none" xmlns="http://www.w3.org/2000/svg">
<g clip-path="url(#clip0_30_2096)">
<path d="M15 30C11.0218 30 7.20644 28.4196 4.3934 25.6066C1.58035 22.7936 0 18.9782 0 15C0 11.0218 1.58035 7.20644 4.3934 4.3934C7.20644 1.58035 11.0218 0 15 0C18.9782 0 22.7936 1.58035 25.6066 4.3934C28.4196 7.20644 30 11.0218 30 15C30 18.9782 28.4196 22.7936 25.6066 25.6066C22.7936 28.4196 18.9782 30 15 30ZM16.5881 14.7281C17.6273 14.3542 18.5013 13.6257 19.0562 12.6708C19.6111 11.7159 19.8112 10.5958 19.6215 9.50782C19.4317 8.41982 18.8642 7.43365 18.0188 6.72296C17.1734 6.01227 16.1044 5.62262 15 5.62262C13.8956 5.62262 12.8266 6.01227 11.9812 6.72296C11.1358 7.43365 10.5683 8.41982 10.3785 9.50782C10.1888 10.5958 10.3889 11.7159 10.9438 12.6708C11.4987 13.6257 12.3727 14.3542 13.4119 14.7281C10.2581 15.4894 7.5 18.3281 7.5 20.625C7.5 21.3656 7.77187 22.4906 9.375 22.4906H20.625C22.2281 22.4906 22.5 21.3656 22.5 20.625C22.5 18.33 19.7437 15.4875 16.5881 14.7281Z" fill="black"/>
</g>
<defs>
<clipPath id="clip0_30_2096">
<rect width="30" height="30" fill="white"/>
</clipPath>
</defs>
</svg>
