<svg width="42" height="42" viewBox="0 0 42 42" fill="none" xmlns="http://www.w3.org/2000/svg">
<g clip-path="url(#clip0_20_1497)">
<path d="M28 17.5C28 21.3675 24.8675 24.5 21 24.5C17.1325 24.5 14 21.3675 14 17.5C14 13.6325 17.1325 10.5 21 10.5C24.8675 10.5 28 13.6325 28 17.5Z" fill="black"/>
<path fill-rule="evenodd" clip-rule="evenodd" d="M21 42C32.6025 42 42 32.6025 42 21C42 9.3975 32.6025 0 21 0C9.3975 0 0 9.3975 0 21C0 32.6025 9.3975 42 21 42ZM31.9725 36.82C36.9775 33.3375 40.25 27.5625 40.25 21C40.25 10.36 31.64 1.75 21 1.75C10.36 1.75 1.75 10.36 1.75 21C1.75 27.5625 5.0225 33.3375 10.0275 36.82C11.2612 34.51 15.2425 28 21 28C26.7575 28 30.73 34.51 31.9725 36.82Z" fill="black"/>
</g>
<defs>
<clipPath id="clip0_20_1497">
<rect width="42" height="42" fill="white"/>
</clipPath>
</defs>
</svg>
