<svg width="25" height="25" viewBox="0 0 25 25" fill="none" xmlns="http://www.w3.org/2000/svg">
<g clip-path="url(#clip0_202_280)">
<path d="M12.5 0C5.59644 0 0 5.59644 0 12.5C0 19.4036 5.59644 25 12.5 25C19.4036 25 25 19.4036 25 12.5C25 5.59644 19.4036 0 12.5 0ZM12.5 1.67015C18.4814 1.67015 23.3299 6.51863 23.3299 12.5C23.3299 18.4814 18.4814 23.3306 12.5 23.3306C6.51863 23.3306 1.66935 18.4814 1.66935 12.5C1.66935 6.51863 6.51863 1.67015 12.5 1.67015ZM19.2161 11.2742C19.5759 11.6144 19.5647 12.1023 19.2961 12.4469C18.9675 12.7936 18.4497 12.8083 18.1234 12.5269C17.1044 11.6022 15.9892 10.7369 14.9518 9.78169C14.9486 9.82252 14.6705 9.59808 14.552 9.5951C14.4454 9.5951 14.3921 9.71948 14.3921 9.96823C14.4444 10.9948 14.3682 12.0786 14.4854 13.0732C14.5298 13.4375 14.552 13.6463 14.552 13.6996L15.7514 20.5226C15.8201 21.1491 15.4776 21.6171 14.9251 21.7219C14.3719 21.8724 13.8034 21.3954 13.7258 20.8957C13.7258 20.8957 12.7582 15.3865 12.7396 15.2987C12.7211 15.211 12.6884 14.725 12.4998 14.699C12.2574 14.787 12.2855 15.1951 12.2599 15.2987C12.2343 15.4023 11.2737 20.8957 11.2737 20.8957C11.1116 21.4737 10.6134 21.8153 10.0744 21.7219C9.4585 21.5679 9.15746 21.0757 9.24817 20.5226L10.4475 13.6729C10.6246 12.4069 10.5808 11.2744 10.5808 9.99487C10.5808 9.74604 10.5319 9.61722 10.4342 9.60842C10.3365 9.59953 10.2076 9.66616 10.0477 9.80831L6.87606 12.5269C6.50548 12.803 5.98742 12.757 5.70335 12.4469C5.41619 12.0366 5.43456 11.5926 5.78331 11.2742L9.94108 7.59617C10.1366 7.47178 10.3187 7.38738 10.4875 7.34296C10.6563 7.29854 10.8651 7.27633 11.1138 7.27633H13.8857C14.1344 7.27633 14.3432 7.29854 14.512 7.34296C14.6808 7.38739 14.8629 7.48067 15.0584 7.62281C16.3822 8.784 17.7876 10.0333 19.2161 11.2742ZM14.334 4.96513C14.334 5.97196 13.5178 6.78815 12.511 6.78815C11.5041 6.78815 10.6879 5.97196 10.6879 4.96513C10.6879 3.95829 11.5041 3.14213 12.511 3.14213C13.5178 3.1421 14.334 3.95831 14.334 4.96513Z" fill="#5F6060"/>
</g>
<defs>
<clipPath id="clip0_202_280">
<rect width="25" height="25" fill="white"/>
</clipPath>
</defs>
</svg>
